<?xml version="1.0" encoding="utf-8"?>
<!-- Generator: Adobe Illustrator 25.2.1, SVG Export Plug-In . SVG Version: 6.00 Build 0)  -->
<svg version="1.1" id="Layer_1" xmlns="http://www.w3.org/2000/svg" xmlns:xlink="http://www.w3.org/1999/xlink" x="0px" y="0px"
	 viewBox="0 0 500 161.6" style="enable-background:new 0 0 500 161.6;" xml:space="preserve">
<style type="text/css">
	.st0{fill:#262262;}
	.st1{fill:#2B3990;}
	.st2{fill:#1C75BC;}
	.st3{fill:#FFFFFF;}
</style>
<g>
	<path class="st0" d="M149,107.6c-6.3,6.7-14.9,10-25.6,10h-36v39.2h48.5c10.7,0,19.4-8.7,19.4-19.4V97.6
		C153.6,101.5,151.6,104.9,149,107.6z"/>
	<path class="st1" d="M56.5,99.7c1.6-1.4,2.5-3.7,2.5-6.9c0-3.3-0.9-5.6-2.7-7c-1.8-1.4-4.8-2.1-8.9-2.1H28.2
		c-5.6,0-10.3-0.6-13.9-1.9c-3.6-1.3-6.4-3-8.5-5.2c-0.9-0.9-1.7-1.9-2.3-3v28.2h44.9C52.2,101.8,54.9,101.1,56.5,99.7z"/>
	<path class="st2" d="M26.7,36.3h35.5V52H26.8c-3.8,0-6.5,0.8-8.2,2.3c-1.6,1.5-2.5,3.9-2.5,6.9c0,2.9,0.8,5.1,2.4,6.5
		c1.6,1.5,4.6,2.2,9.2,2.2h19.1c5.6,0,10.3,0.6,13.9,1.8c3.6,1.2,6.5,2.9,8.6,4.9c0.6,0.6,1.1,1.1,1.6,1.8v-7.5
		c0-11.8,2.5-20.6,7.5-26.3c5-5.7,12.5-8.5,22.3-8.5h22.5c10.8,0,19.3,3.4,25.6,10.1c2.6,2.8,4.6,6.1,6.2,10V24.5
		c0-10.7-8.7-19.4-19.4-19.4h-113c-10.7,0-19.4,8.7-19.4,19.4v22c0.8-1.4,1.8-2.6,2.9-3.8C10.4,38.4,17.2,36.3,26.7,36.3z"/>
	<path class="st0" d="M68.9,110.7c-2.2,2.2-4.9,3.9-8.3,5.1c-3.4,1.2-7.4,1.8-12.2,1.8H3.5v19.9c0,10.7,8.7,19.4,19.4,19.4H71v-48.7
		C70.3,109.1,69.6,109.9,68.9,110.7z"/>
	<path class="st1" d="M137.1,96c3.2-3.9,4.9-10.2,4.9-19c0-8.8-1.6-15.2-4.9-19.1c-3.2-3.9-8.4-5.9-15.5-5.9h-16
		c-6.7,0-11.4,1.5-14.2,4.6c-2.8,3.1-4.2,8.2-4.2,15.2v29.9h34.3C128.7,101.8,133.9,99.8,137.1,96z"/>
	<path class="st3" d="M123.3,117.6c10.8,0,19.3-3.3,25.6-10c2.6-2.7,4.6-6.1,6.2-10V56.4c-1.5-3.9-3.6-7.3-6.2-10
		c-6.3-6.7-14.9-10.1-25.6-10.1h-22.5c-9.9,0-17.3,2.8-22.3,8.5c-5,5.7-7.5,14.5-7.5,26.3v7.5c-0.5-0.6-1-1.2-1.6-1.8
		c-2.1-2.1-5-3.7-8.6-4.9c-3.6-1.2-8.3-1.8-13.9-1.8H27.7c-4.5,0-7.6-0.7-9.2-2.2c-1.6-1.5-2.4-3.7-2.4-6.5c0-3.1,0.8-5.4,2.5-6.9
		c1.6-1.5,4.4-2.3,8.2-2.3h35.3V36.3H26.7c-9.4,0-16.2,2.1-20.3,6.4c-1.1,1.1-2.1,2.4-2.9,3.8v27.1c0.7,1.1,1.4,2.1,2.3,3
		c2.1,2.2,5,4,8.5,5.2c3.6,1.3,8.2,1.9,13.9,1.9h19.3c4.1,0,7.1,0.7,8.9,2.1c1.8,1.4,2.7,3.7,2.7,7c0,3.2-0.8,5.5-2.5,6.9
		c-1.6,1.4-4.4,2.1-8.2,2.1H3.5v15.9h44.9c4.7,0,8.8-0.6,12.2-1.8c3.4-1.2,6.2-2.9,8.3-5.1c0.8-0.8,1.5-1.6,2.1-2.5v48.7h16.3v-39.2
		H123.3z M87.3,71.9c0-7.1,1.4-12.2,4.2-15.2c2.8-3.1,7.5-4.6,14.2-4.6h16c7.1,0,12.2,2,15.5,5.9c3.2,3.9,4.9,10.3,4.9,19.1
		c0,8.8-1.6,15.2-4.9,19c-3.2,3.9-8.4,5.8-15.5,5.8H87.3V71.9z"/>
	<g>
		<path class="st1" d="M216.2,22.4v9.3H189c-2.4,0-4.2,0.6-5.3,1.8c-1.1,1.2-1.6,2.7-1.6,4.5c0,0.8,0.1,1.6,0.4,2.3
			c0.2,0.8,0.7,1.4,1.3,2c0.6,0.6,1.4,1.1,2.4,1.4c1,0.3,2.3,0.5,3.8,0.5h12.4c3.6,0,6.6,0.5,8.9,1.4c2.3,0.9,4.1,2.1,5.5,3.6
			c1.3,1.5,2.2,3.1,2.7,5c0.5,1.9,0.7,3.8,0.7,5.6c0,2.2-0.3,4.3-0.9,6.2c-0.6,1.9-1.6,3.5-3,4.9c-1.4,1.4-3.1,2.5-5.2,3.3
			c-2.1,0.8-4.7,1.2-7.7,1.2h-29.5v-9.3h29.8c2.5,0,4.4-0.6,5.5-1.8c1.2-1.2,1.8-2.8,1.8-4.7c0-0.8-0.1-1.7-0.4-2.5
			c-0.3-0.8-0.7-1.5-1.3-2.1c-0.6-0.6-1.5-1.1-2.5-1.5c-1.1-0.4-2.4-0.5-4-0.5h-12.3c-3.6,0-6.5-0.4-8.7-1.3c-2.2-0.9-4-2.1-5.3-3.5
			c-1.3-1.5-2.2-3.1-2.7-4.9c-0.5-1.8-0.7-3.7-0.7-5.5c0-2.2,0.3-4.2,0.9-6.1c0.6-1.9,1.6-3.5,2.9-4.8c1.3-1.4,3-2.4,5.1-3.2
			c2.1-0.8,4.6-1.1,7.5-1.1H216.2z"/>
		<path class="st1" d="M231.5,34v-9.8h8.4V34h11.5v8h-11.5v19.6c0,2.4,0.4,4,1.3,4.9c0.9,0.9,2.3,1.3,4.3,1.3h5.7v7.6h-7.5
			c-2.1,0-4-0.2-5.5-0.7c-1.5-0.5-2.8-1.3-3.8-2.4c-1-1.1-1.7-2.6-2.2-4.4c-0.5-1.8-0.7-4.1-0.7-6.8V42h-5.6v-8H231.5z"/>
		<path class="st1" d="M267.6,34v24.8c0,2.5,0.9,4.5,2.6,6.1c1.8,1.6,4.3,2.4,7.6,2.4h6.7c3.3,0,5.8-0.8,7.5-2.4
			c1.7-1.6,2.6-3.7,2.6-6.1V34h8.2v25.1c0,2.4-0.4,4.6-1.1,6.6c-0.8,2-1.9,3.7-3.4,5.1c-1.5,1.4-3.4,2.6-5.6,3.4
			c-2.2,0.8-4.8,1.2-7.8,1.2h-7.7c-3,0-5.6-0.4-7.8-1.2c-2.2-0.8-4.1-1.9-5.6-3.4c-1.5-1.4-2.7-3.2-3.4-5.1c-0.8-2-1.1-4.2-1.1-6.6
			V34H267.6z"/>
		<path class="st1" d="M357.2,16v41.7c0,6-1.3,10.5-3.9,13.4c-2.6,2.9-6.4,4.4-11.3,4.4h-11.5c-5.5,0-9.9-1.7-13.1-5.1
			c-3.2-3.4-4.8-8.6-4.8-15.6c0-7,1.6-12.2,4.8-15.6c3.2-3.4,7.6-5.1,13.1-5.1h18.3V16H357.2z M339.5,67.3c3.3,0,5.7-0.8,7.1-2.4
			c1.4-1.6,2.1-4.1,2.1-7.7V42h-17.5c-3.6,0-6.2,1-7.9,3c-1.6,2-2.5,5.2-2.5,9.7c0,4.5,0.8,7.7,2.5,9.7c1.6,2,4.3,2.9,7.9,2.9H339.5
			z"/>
		<path class="st1" d="M396,34c4.9,0,8.5,1.1,10.7,3.3c2.2,2.2,3.3,5.3,3.3,9.4c0,3.8-1.1,6.8-3.2,8.8c-2.1,2.1-5.8,3.1-10.8,3.1
			h-19.7v3c0,1.7,0.5,3,1.5,4.1c1,1.1,2.6,1.6,4.9,1.6h25.3v8.1h-25.3c-2.6,0-4.8-0.3-6.6-1c-1.8-0.7-3.3-1.6-4.5-2.9
			c-1.2-1.2-2-2.7-2.5-4.3c-0.5-1.6-0.8-3.5-0.8-5.5V47.6c0-1.9,0.3-3.7,0.8-5.4c0.5-1.7,1.4-3.1,2.5-4.4c1.2-1.2,2.7-2.2,4.5-2.9
			c1.8-0.7,4-1,6.6-1H396z M376.2,52.1h19.5c2.2,0,3.8-0.4,4.7-1.3c0.9-0.9,1.4-2.1,1.4-3.6c0-1.6-0.5-2.8-1.4-3.8S398,42,395.9,42
			h-13.3c-2.3,0-3.9,0.5-4.9,1.6c-1,1.1-1.5,2.5-1.5,4.1V52.1z"/>
		<path class="st1" d="M443.1,34c7.1,0,12.3,1.6,15.7,4.7c3.4,3.2,5.1,7.6,5.1,13.4v23.3h-8.4V52.1c0-3.3-1-5.8-2.9-7.5
			c-2-1.7-5.1-2.6-9.5-2.6h-13.6c-0.7,0-1,0.4-1,1.2v32.2h-8.3v-35c0-2.5,0.4-4.1,1.3-5.1c0.9-0.9,2.4-1.4,4.5-1.4H443.1z"/>
		<path class="st1" d="M477.1,34v-9.8h8.4V34H497v8h-11.5v19.6c0,2.4,0.4,4,1.3,4.9c0.9,0.9,2.3,1.3,4.3,1.3h5.7v7.6h-7.5
			c-2.1,0-4-0.2-5.5-0.7c-1.5-0.5-2.8-1.3-3.8-2.4c-1-1.1-1.7-2.6-2.2-4.4c-0.5-1.8-0.7-4.1-0.7-6.8V42h-5.6v-8H477.1z"/>
		<path class="st2" d="M202.3,90.1c3,0,5.5,0.4,7.7,1.3c2.1,0.9,3.9,2,5.3,3.5c1.4,1.4,2.4,3.1,3.1,5.1c0.7,1.9,1,4,1,6
			c0,2-0.3,4-0.9,6c-0.6,2-1.6,3.8-2.9,5.3c-1.4,1.6-3.1,2.9-5.3,3.8c-2.2,1-4.8,1.5-7.9,1.5h-16.5c-0.9,0-1.3,0.4-1.3,1.3V143h-9.3
			v-20.9c0-3,0.7-5.1,2-6.4c1.3-1.3,3.4-2,6.4-2h19.1c1.3,0,2.4-0.2,3.4-0.6c0.9-0.4,1.7-1,2.3-1.6c0.6-0.7,1-1.5,1.3-2.3
			c0.3-0.9,0.4-1.8,0.4-2.7c0-1.9-0.6-3.6-1.8-5c-1.2-1.4-3-2.1-5.5-2.1h-27.5v-9.3H202.3z"/>
		<path class="st2" d="M251.9,101.6c5.5,0,9.9,1.7,13.1,5.1c3.2,3.4,4.9,8.6,4.9,15.6c0,7-1.6,12.2-4.9,15.6
			c-3.2,3.4-7.6,5.1-13.1,5.1h-8.7c-5.5,0-9.9-1.7-13.1-5.1c-3.2-3.4-4.8-8.6-4.8-15.6c0-7,1.6-12.2,4.8-15.6
			c3.2-3.4,7.6-5.1,13.1-5.1H251.9z M244,109.6c-3.6,0-6.2,1-7.9,3c-1.6,2-2.5,5.2-2.5,9.7c0,4.5,0.8,7.7,2.5,9.7
			c1.6,2,4.3,2.9,7.9,2.9h7.1c3.6,0,6.2-1,7.9-2.9c1.6-2,2.5-5.2,2.5-9.7c0-4.5-0.8-7.7-2.5-9.7c-1.6-2-4.3-3-7.9-3H244z"/>
		<path class="st2" d="M308,101.6v8h-14.6c-3.6,0-5.3,1.8-5.3,5.3V143h-8.3v-29.3c0-4.2,0.8-7.2,2.5-9.2c1.7-1.9,4.6-2.9,8.7-2.9
			H308z"/>
		<path class="st2" d="M319.2,101.6v-9.8h8.4v9.8h11.5v8h-11.5v19.6c0,2.4,0.4,4,1.3,4.9c0.9,0.9,2.3,1.3,4.3,1.3h5.7v7.6h-7.5
			c-2.1,0-4-0.2-5.5-0.7c-1.5-0.5-2.8-1.3-3.8-2.4c-1-1.1-1.7-2.6-2.2-4.4c-0.5-1.8-0.7-4.1-0.7-6.8v-19.1h-5.6v-8H319.2z"/>
		<path class="st2" d="M408.2,83.6V143h-8.3V83.6H408.2z"/>
	</g>
</g>
<g>
	<path class="st0" d="M375.1,109c2.4,0,5.6,0.4,7,2.1c0.7,0.8,2.3,3.6,2.3,11.1c0,7.5-1.6,10.2-2.2,11c-1.4,1.7-4.6,2.1-7,2.1H354
		v-17.4c0-5.8,1.3-7.4,1.5-7.6c0.4-0.5,2.2-1.3,6.1-1.3H375.1 M375.1,101h-13.6c-5.7,0-9.7,1.3-12,3.9c-2.4,2.6-3.5,6.9-3.5,13v25.4
		h29.2c6,0,10.4-1.6,13.1-4.9c2.7-3.3,4.1-8.7,4.1-16.2c0-7.5-1.4-12.9-4.1-16.2C385.5,102.7,381.2,101,375.1,101L375.1,101z"/>
</g>
</svg>
